<svg width="24" height="25" viewBox="0 0 24 25" fill="none" xmlns="http://www.w3.org/2000/svg">
<circle cx="12" cy="12" r="12" transform="matrix(1 0 0 -1 0 24.3246)" fill="#161527"/>
<path d="M6.54509 10.1472C6.70583 9.98648 6.9238 9.89621 7.15109 9.89621C7.37837 9.89621 7.59635 9.98648 7.75709 10.1472L11.9999 14.39L16.2428 10.1472C16.4045 9.99103 16.621 9.90464 16.8457 9.90659C17.0705 9.90854 17.2854 9.99869 17.4444 10.1576C17.6033 10.3165 17.6934 10.5315 17.6954 10.7563C17.6973 10.981 17.6109 11.1975 17.4548 11.3592L12.6059 16.208C12.4452 16.3687 12.2272 16.459 11.9999 16.459C11.7727 16.459 11.5547 16.3687 11.3939 16.208L6.54509 11.3592C6.3844 11.1984 6.29413 10.9805 6.29413 10.7532C6.29413 10.5259 6.3844 10.3079 6.54509 10.1472Z" fill="white"/>
</svg>
