<svg width="18" height="19" viewBox="0 0 18 19" fill="none" xmlns="http://www.w3.org/2000/svg">
<path d="M13.9109 1.8089H7.08908C5.6616 1.8089 4.5 2.9705 4.5 4.39797V4.8089H4.08907C2.6616 4.8089 1.5 5.9705 1.5 7.39797V14.2197C1.5 15.6473 2.6616 16.8089 4.08907 16.8089H10.9109C12.2222 16.8089 13.2975 15.825 13.4657 14.5589H13.9109C15.3384 14.5589 16.5 13.3973 16.5 11.9698V4.39797C16.5 2.9705 15.3384 1.8089 13.9109 1.8089ZM15 11.9698C15 12.5703 14.5114 13.0589 13.9109 13.0589H13.5V7.39797C13.5 5.9705 12.3384 4.8089 10.9109 4.8089H6V4.39797C6 3.79745 6.48855 3.3089 7.08908 3.3089H13.9109C14.5114 3.3089 15 3.79745 15 4.39797V11.9698Z" fill="#2F2F3F"/>
</svg>
