<svg width="18" height="18" viewBox="0 0 18 18" fill="none" xmlns="http://www.w3.org/2000/svg">
<path d="M2.55261 11.2231H1.24208C0.905038 11.1988 0.591163 11.0426 0.368503 10.7884C0.145842 10.5342 0.0323413 10.2025 0.0526063 9.86519V2.05466C0.0323413 1.71735 0.145842 1.38565 0.368503 1.13146C0.591163 0.877271 0.905038 0.721087 1.24208 0.696768H2.55261C2.88871 0.722403 3.20125 0.879153 3.4228 1.13319C3.64435 1.38724 3.75713 1.7182 3.73682 2.05466V9.86519C3.75713 10.2017 3.64435 10.5326 3.4228 10.7867C3.20125 11.0407 2.88871 11.1974 2.55261 11.2231Z" fill="#DC3F4D"/>
<path d="M15.8789 10.9178H10.9684L11.8842 14.2705C12.0339 14.8422 12.014 15.4451 11.8271 16.0058C11.6402 16.5665 11.2943 17.0608 10.8316 17.4284C10.6209 17.5966 10.374 17.7137 10.1104 17.7704C9.84681 17.8271 9.57364 17.8218 9.31242 17.755C9.0512 17.6881 8.80906 17.5616 8.60506 17.3852C8.40107 17.2089 8.24078 16.9877 8.13682 16.7389L7.47893 15.1389C6.81193 13.5444 5.81458 12.1093 4.55261 10.9284C4.70676 10.5987 4.78756 10.2396 4.78945 9.87572V2.05467C4.78542 1.77135 4.73566 1.49054 4.64209 1.22309L5.04735 0.917822C5.67943 0.438999 6.44914 0.176893 7.24209 0.170454H13.7842C14.2009 0.170137 14.6125 0.261436 14.9899 0.437885C15.3674 0.614332 15.7014 0.871613 15.9684 1.19151C17.2473 2.72675 17.9476 4.66177 17.9474 6.65993V8.84414C17.9474 9.3932 17.7296 9.91986 17.3418 10.3086C16.9541 10.6973 16.428 10.9164 15.8789 10.9178Z" fill="#DC3F4D"/>
</svg>
