<svg width="18" height="19" viewBox="0 0 18 19" fill="none" xmlns="http://www.w3.org/2000/svg">
<path d="M2.55264 7.01251H1.24211C0.905068 7.03683 0.591194 7.19302 0.368533 7.4472C0.145873 7.70139 0.0323718 8.0331 0.0526369 8.37041V16.1809C0.0323718 16.5182 0.145873 16.8499 0.368533 17.1041C0.591194 17.3583 0.905068 17.5145 1.24211 17.5388H2.55264C2.88874 17.5132 3.20128 17.3564 3.42283 17.1024C3.64438 16.8484 3.75716 16.5174 3.73685 16.1809V8.37041C3.75716 8.03394 3.64438 7.70298 3.42283 7.44894C3.20128 7.1949 2.88874 7.03815 2.55264 7.01251Z" fill="#50A148"/>
<path d="M15.879 7.31777H10.9684L11.8842 3.96514C12.0339 3.39339 12.0141 2.79045 11.8272 2.22977C11.6403 1.66908 11.2944 1.17484 10.8316 0.807244C10.6209 0.638954 10.3741 0.521863 10.1105 0.465188C9.84684 0.408513 9.57367 0.413801 9.31245 0.480637C9.05123 0.547473 8.80909 0.674031 8.60509 0.850348C8.4011 1.02667 8.24081 1.24793 8.13685 1.49672L7.47896 3.09672C6.81196 4.69121 5.81461 6.12625 4.55264 7.30725C4.70679 7.63687 4.78759 7.996 4.78948 8.35988V16.1809C4.78545 16.4642 4.73569 16.7451 4.64212 17.0125L5.04738 17.3178C5.67946 17.7966 6.44917 18.0587 7.24212 18.0651H13.7842C14.2009 18.0655 14.6125 17.9742 14.99 17.7977C15.3674 17.6213 15.7015 17.364 15.9684 17.0441C17.2474 15.5088 17.9476 13.5738 17.9474 11.5757V9.39146C17.9474 8.84239 17.7296 8.31574 17.3419 7.927C16.9541 7.53826 16.428 7.31916 15.879 7.31777Z" fill="#50A148"/>
</svg>
